<svg width="80" height="80" viewBox="0 0 80 80" fill="none" xmlns="http://www.w3.org/2000/svg">
<g clip-path="url(#clip0_176_126)">
<path d="M70.0938 13.675C70.0178 13.558 69.9227 13.4545 69.8125 13.3688C66.067 9.16094 61.4733 5.79337 56.3335 3.48739C51.1937 1.18142 45.6241 -0.0107422 39.9906 -0.0107422C34.3572 -0.0107422 28.7876 1.18142 23.6478 3.48739C18.508 5.79337 13.9143 9.16094 10.1688 13.3688C10.0641 13.4517 9.97334 13.5509 9.90002 13.6625V13.6938C4.8435 19.4783 1.55983 26.5966 0.441595 34.1978C-0.676641 41.7989 0.417868 49.5613 3.59427 56.557C6.77068 63.5526 11.8946 69.4854 18.3534 73.6462C24.8122 77.807 32.3327 80.0196 40.0156 80.0196C47.6986 80.0196 55.2191 77.807 61.6779 73.6462C68.1367 69.4854 73.2606 63.5526 76.437 56.557C79.6134 49.5613 80.7079 41.7989 79.5897 34.1978C78.4715 26.5966 75.1878 19.4783 70.1313 13.6938L70.0938 13.675ZM68.8438 63.9313C66.0039 62.2737 62.9898 60.9343 59.8563 59.9375C61.7995 53.8956 62.8255 47.5964 62.9 41.25H77.4688C77.2021 49.5623 74.1664 57.5474 68.8438 63.9375V63.9313ZM2.53127 41.25H17.1C17.1739 47.5985 18.1999 53.8999 20.1438 59.9438C17.0102 60.9406 13.9962 62.2799 11.1563 63.9375C5.83361 57.5474 2.79798 49.5623 2.53127 41.25ZM11.25 15.9688C14.0759 17.6114 17.0729 18.9401 20.1875 19.9313C18.2153 26.0126 17.1744 32.3573 17.1 38.75H2.53127C2.80366 30.3941 5.87401 22.3715 11.25 15.9688ZM41.25 22.9C46.7404 22.8222 52.1994 22.058 57.5 20.625C59.3709 26.4876 60.3568 32.5965 60.425 38.75H41.25V22.9ZM41.25 20.4V2.57505C47.5875 3.2813 53.125 9.3188 56.625 18.2688C51.6066 19.6061 46.443 20.3219 41.25 20.4ZM38.75 20.4C33.5571 20.322 28.3934 19.6062 23.375 18.2688C26.875 9.3188 32.4125 3.2813 38.75 2.57505V20.4ZM38.75 22.9V38.75H19.6C19.6602 32.5978 20.6376 26.4889 22.5 20.625C27.8007 22.0579 33.2597 22.8222 38.75 22.9ZM19.6 41.25H38.75V56.9625C33.2591 57.0442 27.8001 57.8127 22.5 59.25C20.6513 53.4258 19.674 47.3602 19.6 41.25ZM38.75 59.4625V77.425C32.3875 76.7125 26.8 70.625 23.325 61.6063C28.359 60.2604 33.5398 59.5403 38.75 59.4625ZM41.25 59.4625C46.4603 59.5404 51.641 60.2604 56.675 61.6063C53.2 70.625 47.6125 76.7125 41.25 77.425V59.4625ZM41.25 56.9625V41.25H60.4C60.3254 47.3581 59.3482 53.4216 57.5 59.2438C52.1997 57.8086 46.7406 57.0422 41.25 56.9625ZM62.9 38.75C62.8257 32.3573 61.7847 26.0126 59.8125 19.9313C62.9272 18.9401 65.9241 17.6114 68.75 15.9688C74.126 22.3715 77.1964 30.3941 77.4688 38.75H62.9ZM67.0563 14.075C64.4876 15.516 61.7775 16.6888 58.9688 17.575C56.6625 11.65 53.4625 6.87505 49.7125 3.7813C56.3253 5.56434 62.3235 9.12436 67.0563 14.075ZM30.2875 3.7813C26.5375 6.8563 23.3438 11.6438 21.0375 17.575C18.2288 16.6888 15.5187 15.516 12.95 14.075C17.6811 9.12533 23.677 5.56539 30.2875 3.7813ZM12.8563 65.8375C15.4348 64.3803 18.1578 63.1948 20.9813 62.3C23.2938 68.2876 26.5063 73.125 30.2813 76.2188C23.6296 74.4247 17.6007 70.8329 12.8563 65.8375ZM49.7313 76.2188C53.4813 73.0938 56.7188 68.2876 59.0313 62.3C61.8547 63.1948 64.5777 64.3803 67.1563 65.8375C62.4067 70.8358 56.3709 74.4279 49.7125 76.2188H49.7313Z" fill="white"/>
</g>
<defs>
<clipPath id="clip0_176_126">
<rect width="80" height="80" fill="white"/>
</clipPath>
</defs>
</svg>
