<svg width="756" height="150" viewBox="0 0 756 150" fill="none" xmlns="http://www.w3.org/2000/svg">
<path d="M14.3713 45.8863H0.205078L0.821002 26.4847C0.821002 14.659 9.44393 11.4972 13.7554 11.3946H55.0223C59.2105 11.3946 60.4629 8.31497 60.5656 6.77516V0H75.3477V6.77516C75.3477 9.97796 78.6327 11.5999 80.2751 12.0105H120.618C132.69 13.4887 135.914 22.6865 136.016 27.1006V46.1943H121.234V37.2634C121.234 29.1332 116.512 27.5112 114.151 27.7166H79.0433C70.174 27.7166 67.9566 20.9414 67.9566 17.5538C67.9566 24.9449 59.7443 27.6139 55.6382 28.0245H22.9942C16.0959 28.0245 14.3713 33.9784 14.3713 36.9554V45.8863Z" fill="white"/>
<path d="M121.849 66.898L136.016 66.898L135.4 123.255C135.4 135.081 126.777 138.243 122.465 138.345L81.1984 138.345C77.0102 138.345 75.7578 141.425 75.6551 142.965L75.6551 149.74L60.873 149.74L60.873 142.965C60.873 139.762 57.588 138.14 55.9456 137.729L15.6026 137.729C3.5305 136.251 0.307177 127.053 0.204516 122.639L0.204521 66.5901L14.9867 66.5901L14.9867 112.476C14.9867 120.607 19.7088 122.228 22.0698 122.023L57.1774 122.023C66.0467 122.023 68.2641 128.798 68.2641 132.186C68.2641 124.795 76.4764 122.126 80.5825 121.715L113.226 121.715C120.125 121.715 121.849 115.761 121.849 112.784L121.849 66.898Z" fill="white"/>
<circle cx="92.5936" cy="56.6639" r="12.9344" fill="white"/>
<g clip-path="url(#clip0_176_20)">
<path d="M55.0229 48.6843L51.9186 45.5801L43.9362 53.5624L35.9538 45.5801L32.8496 48.6843L40.832 56.6667L32.8496 64.649L35.9538 67.7533L43.9362 59.771L51.9186 67.7533L55.0229 64.649L47.0405 56.6667L55.0229 48.6843Z" fill="white"/>
</g>
<path d="M68.505 101.787C55.563 101.787 44.1879 93.0877 40.118 88.7381C39.3244 88.3107 39.3295 89.0179 39.4313 89.4248C41.339 95.7585 49.9161 108.426 68.9629 108.426C88.0096 108.426 97.299 95.8094 99.5629 89.5012C99.9291 88.1581 99.105 88.6363 98.6471 89.0433C93.9923 93.2912 81.4471 101.787 68.505 101.787Z" fill="white"/>
<path d="M37.5995 86.2219C34.7303 87.9312 34.5217 90.4952 34.7761 91.5635C35.1424 91.9908 35.59 91.5381 35.7681 91.2583C37.8284 88.1296 42.3307 87.3665 43.0938 87.2902C43.7042 87.2291 43.7042 86.8578 43.6279 86.6797C42.814 85.8149 40.4687 84.5125 37.5995 86.2219Z" fill="white"/>
<path d="M101.32 86.0442C98.3301 84.5565 96.0611 85.7687 95.3004 86.5607C95.1393 87.1 95.7623 87.2314 96.0939 87.2297C99.8399 87.2691 102.918 90.6422 103.395 91.2425C103.777 91.7229 104.089 91.5219 104.198 91.3614C104.484 90.2089 104.31 87.5319 101.32 86.0442Z" fill="white"/>
<path d="M252.077 42.1647V105.175H232.409V73.7587L222.708 105.175H205.799L196.098 73.7587V105.175H176.34V42.1647H200.548L214.431 79.9885L227.959 42.1647H252.077ZM301.397 95.6521H280.394L277.279 105.175H256.542L279.593 42.1647H302.376L325.337 105.175H304.512L301.397 95.6521ZM296.591 80.7895L290.895 63.257L285.2 80.7895H296.591ZM356.08 42.1647C362.666 42.1647 368.421 43.4996 373.346 46.1695C378.33 48.8395 382.157 52.5477 384.827 57.2942C387.497 62.0407 388.832 67.4399 388.832 73.4917C388.832 79.4842 387.497 84.8834 384.827 89.6893C382.157 94.4951 378.33 98.2923 373.346 101.081C368.421 103.81 362.666 105.175 356.08 105.175H329.826V42.1647H356.08ZM354.301 87.5533C358.75 87.5533 362.281 86.337 364.891 83.9044C367.502 81.4718 368.807 78.0009 368.807 73.4917C368.807 68.9825 367.502 65.5116 364.891 63.079C362.281 60.6464 358.75 59.4301 354.301 59.4301H349.584V87.5533H354.301ZM434.769 66.6389V82.9255H393.296V66.6389H434.769ZM445.464 73.5807C445.464 67.3509 446.71 61.8034 449.202 56.9382C451.753 52.073 455.372 48.3055 460.059 45.6355C464.747 42.9063 470.264 41.5417 476.613 41.5417C482.071 41.5417 486.937 42.58 491.208 44.6566C495.54 46.6739 499.04 49.5514 501.71 53.2893C504.439 57.0272 506.249 61.3881 507.139 66.3719H486.314C485.364 64.2953 484 62.6934 482.22 61.5661C480.499 60.3794 478.511 59.7861 476.257 59.7861C472.934 59.7861 470.294 61.0321 468.336 63.524C466.437 66.016 465.488 69.3682 465.488 73.5807C465.488 77.7933 466.437 81.1455 468.336 83.6374C470.294 86.1294 472.934 87.3753 476.257 87.3753C478.511 87.3753 480.499 86.8117 482.22 85.6844C484 84.4977 485.364 82.8661 486.314 80.7895H507.139C506.249 85.7734 504.439 90.1342 501.71 93.8721C499.04 97.61 495.54 100.517 491.208 102.594C486.937 104.611 482.071 105.62 476.613 105.62C470.264 105.62 464.747 104.285 460.059 101.615C455.372 98.8857 451.753 95.0884 449.202 90.2232C446.71 85.3581 445.464 79.8105 445.464 73.5807ZM544.957 105.798C539.023 105.798 533.565 104.403 528.581 101.615C523.657 98.8263 519.741 94.9698 516.833 90.0452C513.926 85.1207 512.473 79.5732 512.473 73.4027C512.473 67.2322 513.926 61.6847 516.833 56.7602C519.741 51.8357 523.657 48.0088 528.581 45.2796C533.565 42.491 539.023 41.0967 544.957 41.0967C550.89 41.0967 556.319 42.491 561.243 45.2796C566.168 48.0088 570.054 51.8357 572.902 56.7602C575.809 61.6847 577.263 67.2322 577.263 73.4027C577.263 79.5732 575.809 85.1207 572.902 90.0452C570.054 94.9698 566.138 98.8263 561.154 101.615C556.23 104.403 550.83 105.798 544.957 105.798ZM544.957 87.3753C548.872 87.3753 551.898 86.1294 554.034 83.6374C556.17 81.0862 557.238 77.6746 557.238 73.4027C557.238 69.0715 556.17 65.66 554.034 63.168C551.898 60.6168 548.872 59.3411 544.957 59.3411C540.981 59.3411 537.926 60.6168 535.79 63.168C533.654 65.66 532.586 69.0715 532.586 73.4027C532.586 77.6746 533.654 81.0862 535.79 83.6374C537.926 86.1294 540.981 87.3753 544.957 87.3753ZM610.644 42.1647C617.23 42.1647 622.985 43.4996 627.91 46.1695C632.894 48.8395 636.721 52.5477 639.39 57.2942C642.06 62.0407 643.395 67.4399 643.395 73.4917C643.395 79.4842 642.06 84.8834 639.39 89.6893C636.721 94.4951 632.894 98.2923 627.91 101.081C622.985 103.81 617.23 105.175 610.644 105.175H584.39V42.1647H610.644ZM608.864 87.5533C613.314 87.5533 616.844 86.337 619.455 83.9044C622.066 81.4718 623.371 78.0009 623.371 73.4917C623.371 68.9825 622.066 65.5116 619.455 63.079C616.844 60.6464 613.314 59.4301 608.864 59.4301H604.147V87.5533H608.864ZM670.287 57.9172V65.66H689.867V80.5225H670.287V89.4223H692.536V105.175H650.53V42.1647H692.536V57.9172H670.287ZM731.665 105.175L719.829 82.5695H719.74V105.175H699.982V42.1647H729.351C734.454 42.1647 738.815 43.0843 742.434 44.9236C746.053 46.7035 748.753 49.1658 750.533 52.3104C752.372 55.3956 753.292 58.8962 753.292 62.812C753.292 67.0246 752.105 70.7625 749.732 74.0257C747.418 77.289 744.066 79.6326 739.675 81.0565L753.381 105.175H731.665ZM719.74 69.3979H727.572C729.47 69.3979 730.894 68.9825 731.843 68.1519C732.793 67.2619 733.267 65.8973 733.267 64.058C733.267 62.3967 732.763 61.0914 731.754 60.1421C730.805 59.1928 729.411 58.7182 727.572 58.7182H719.74V69.3979Z" fill="white"/>
<defs>
<clipPath id="clip0_176_20">
<rect width="22.1732" height="22.1732" fill="white" transform="translate(32.8496 45.5791)"/>
</clipPath>
</defs>
</svg>
